<?xml version="1.0" encoding="utf-8"?>
<!-- Generator: Adobe Illustrator 16.0.0, SVG Export Plug-In . SVG Version: 6.00 Build 0)  -->
<!DOCTYPE svg PUBLIC "-//W3C//DTD SVG 1.1//EN" "http://www.w3.org/Graphics/SVG/1.1/DTD/svg11.dtd">
<svg version="1.1" id="Layer_1" xmlns="http://www.w3.org/2000/svg" xmlns:xlink="http://www.w3.org/1999/xlink" x="0px" y="0px"
	 width="374px" height="75px" viewBox="0 0 374 75" enable-background="new 0 0 374 75" xml:space="preserve">
<g>
	<g>
		<g>
			<path fill="#00B4E6" d="M49.204,44.584l3.44-4.857c0,0,13.396,12.616-4.268,29.82C48.376,69.547,58.838,54.906,49.204,44.584z"/>
		</g>
		<g>
			<path fill="#F4781E" d="M9.381,39.727l7.34,2.753c0,0-2.294,19.268,14.452,27.067C31.173,69.547,8.463,66.795,9.381,39.727z"/>
		</g>
		<g>
			<path fill="#92C039" d="M62.829,31.01l6.422-4.588c0,0,15.742,20.416-11.742,41.062C57.509,67.483,72.477,48.605,62.829,31.01z"
				/>
		</g>
		<g>
			<path fill="#00B4E6" d="M35.531,34.451l1.376,2.638c0,0-7.569,1.95-9.405,2.638C27.502,39.727,30.829,34.443,35.531,34.451z"/>
		</g>
		<g>
			<path fill="#F4781E" d="M24.75,23.211c0,0,11.699-1.837,12.158-0.23c0,0-3.441-0.459-11.011,3.441L24.75,23.211z"/>
		</g>
		<g>
			<path fill="#92C039" d="M46.313,17.935l-1.147-5.046c0,0-6.881,0.229-13.993,3.899C31.173,16.788,44.851,16.913,46.313,17.935z"
				/>
		</g>
		<g>
			
				<ellipse transform="matrix(0.9678 -0.2518 0.2518 0.9678 -7.36 12.3393)" fill="#00B4E6" cx="44.536" cy="34.929" rx="6.481" ry="7.277"/>
		</g>
		<g>
			<path fill="#F4781E" d="M24.726,29.444c0.304,5.55-3.454,10.269-8.397,10.543c-4.944,0.271-9.2-4.007-9.504-9.559
				c-0.306-5.547,3.454-10.268,8.398-10.541C20.165,19.615,24.421,23.894,24.726,29.444z"/>
		</g>
		<g>
			<path fill="#92C039" d="M68.205,16.283c0.186,6.145-4.099,11.26-9.573,11.428c-5.477,0.163-10.065-4.682-10.25-10.826
				c-0.187-6.145,4.1-11.262,9.574-11.428C63.428,5.292,68.02,10.138,68.205,16.283z"/>
		</g>
	</g>
	<g>
		<path fill="#00B4E6" d="M115.377,54.784v4.536H92.863V21.904H98.1v32.88H115.377z"/>
		<path fill="#00B4E6" d="M123.044,26.169c-0.9,0-1.665-0.297-2.295-0.891c-0.63-0.595-0.944-1.395-0.944-2.403
			c0-1.007,0.314-1.809,0.944-2.401c0.63-0.595,1.395-0.892,2.295-0.892c0.899,0,1.665,0.297,2.294,0.892
			c0.629,0.593,0.945,1.395,0.945,2.401c0,1.009-0.316,1.809-0.945,2.403C124.709,25.872,123.943,26.169,123.044,26.169z
			 M125.582,59.32h-5.021V31.245h5.021V59.32z"/>
		<path fill="#00B4E6" d="M151.822,56.513c-0.433,0.288-1.269,0.657-2.511,1.106c-1.242,0.451-2.691,0.676-4.347,0.676
			c-1.692,0-3.285-0.271-4.778-0.811c-1.494-0.54-2.799-1.376-3.915-2.511c-1.116-1.133-1.998-2.546-2.646-4.238
			c-0.647-1.691-0.972-3.707-0.972-6.047c0-2.052,0.306-3.933,0.918-5.643c0.612-1.709,1.503-3.185,2.672-4.427
			c1.17-1.241,2.601-2.215,4.293-2.916c1.691-0.701,3.599-1.053,5.723-1.053c2.339,0,4.382,0.172,6.128,0.513
			c1.746,0.343,3.213,0.657,4.4,0.945V57.16c0,4.319-1.116,7.452-3.347,9.396c-2.232,1.944-5.616,2.915-10.15,2.915
			c-1.765,0-3.429-0.144-4.995-0.432c-1.566-0.289-2.925-0.63-4.076-1.025l0.918-4.373c1.007,0.395,2.241,0.745,3.698,1.052
			c1.458,0.306,2.978,0.459,4.563,0.459c2.987,0,5.137-0.593,6.452-1.781c1.313-1.188,1.971-3.078,1.971-5.67V56.513z
			 M151.768,35.672c-0.504-0.144-1.179-0.278-2.024-0.405c-0.846-0.125-1.989-0.189-3.429-0.189c-2.699,0-4.778,0.884-6.236,2.646
			s-2.187,4.104-2.187,7.019c0,1.619,0.207,3.006,0.621,4.157c0.414,1.152,0.972,2.106,1.674,2.861
			c0.702,0.757,1.512,1.314,2.429,1.675c0.918,0.36,1.863,0.539,2.835,0.539c1.331,0,2.555-0.188,3.671-0.566
			c1.116-0.379,1.998-0.818,2.646-1.322V35.672z"/>
		<path fill="#00B4E6" d="M165.427,59.32V18.286l5.021-0.863v14.361c0.936-0.359,1.934-0.639,2.997-0.838
			c1.062-0.195,2.114-0.296,3.159-0.296c2.231,0,4.084,0.316,5.561,0.945c1.475,0.63,2.654,1.512,3.537,2.645
			c0.882,1.135,1.502,2.493,1.863,4.077c0.359,1.585,0.54,3.33,0.54,5.237V59.32h-5.021V44.635c0-1.728-0.117-3.203-0.351-4.428
			c-0.235-1.223-0.621-2.214-1.161-2.97c-0.54-0.755-1.261-1.305-2.16-1.647c-0.9-0.341-2.016-0.513-3.348-0.513
			c-0.54,0-1.098,0.037-1.673,0.109c-0.577,0.072-1.126,0.153-1.647,0.241c-0.522,0.092-0.99,0.189-1.403,0.298
			c-0.415,0.108-0.711,0.198-0.891,0.27V59.32H165.427z"/>
		<path fill="#00B4E6" d="M200.954,31.245h10.636v4.21h-10.636v12.959c0,1.403,0.107,2.565,0.324,3.482
			c0.216,0.918,0.54,1.638,0.972,2.159c0.432,0.522,0.972,0.892,1.62,1.106c0.648,0.217,1.404,0.324,2.268,0.324
			c1.512,0,2.727-0.169,3.644-0.513c0.918-0.342,1.557-0.584,1.917-0.729l0.971,4.158c-0.504,0.252-1.386,0.566-2.646,0.945
			c-1.26,0.377-2.699,0.566-4.319,0.566c-1.908,0-3.483-0.243-4.725-0.729c-1.241-0.485-2.241-1.215-2.996-2.188
			c-0.756-0.971-1.288-2.168-1.593-3.59c-0.306-1.421-0.458-3.068-0.458-4.94V23.414l5.021-0.862V31.245z"/>
		<path fill="#00B4E6" d="M239.449,55.595c5.471,0,8.207-1.871,8.207-5.614c0-1.152-0.243-2.134-0.729-2.942
			c-0.485-0.812-1.143-1.513-1.97-2.106c-0.829-0.594-1.773-1.106-2.835-1.539c-1.062-0.433-2.187-0.863-3.374-1.296
			c-1.369-0.468-2.665-0.998-3.888-1.593c-1.224-0.594-2.286-1.296-3.185-2.105c-0.9-0.81-1.611-1.772-2.133-2.889
			c-0.522-1.115-0.783-2.465-0.783-4.049c0-3.275,1.115-5.832,3.348-7.668c2.231-1.835,5.309-2.753,9.232-2.753
			c2.268,0,4.328,0.243,6.183,0.729c1.853,0.486,3.212,1.018,4.076,1.594l-1.673,4.265c-0.756-0.467-1.881-0.927-3.375-1.376
			c-1.494-0.45-3.231-0.676-5.21-0.676c-1.008,0-1.943,0.108-2.808,0.324c-0.863,0.216-1.62,0.54-2.267,0.972
			c-0.648,0.433-1.161,0.98-1.539,1.647c-0.378,0.666-0.567,1.448-0.567,2.348c0,1.008,0.197,1.854,0.594,2.538
			c0.396,0.684,0.953,1.288,1.674,1.81c0.72,0.521,1.556,0.998,2.511,1.43c0.953,0.432,2.006,0.864,3.159,1.296
			c1.62,0.648,3.104,1.296,4.454,1.944c1.351,0.647,2.519,1.422,3.51,2.321c0.989,0.9,1.755,1.971,2.294,3.213
			c0.54,1.242,0.81,2.745,0.81,4.508c0,3.276-1.197,5.795-3.59,7.559c-2.394,1.765-5.768,2.646-10.123,2.646
			c-1.477,0-2.834-0.1-4.076-0.298c-1.242-0.198-2.349-0.432-3.321-0.701s-1.809-0.559-2.511-0.864
			c-0.702-0.306-1.251-0.567-1.647-0.783l1.566-4.319c0.827,0.468,2.087,0.99,3.779,1.566S237.001,55.595,239.449,55.595z"/>
		<path fill="#00B4E6" d="M283.884,45.336c0,2.125-0.279,4.086-0.836,5.885c-0.559,1.802-1.377,3.349-2.458,4.644
			c-1.079,1.296-2.402,2.305-3.968,3.024s-3.356,1.079-5.373,1.079c-1.62,0-3.051-0.215-4.292-0.647
			c-1.242-0.432-2.169-0.846-2.781-1.242v11.23h-5.021v-37.2c1.188-0.288,2.673-0.603,4.455-0.945
			c1.781-0.341,3.841-0.513,6.182-0.513c2.16,0,4.103,0.342,5.831,1.025c1.727,0.685,3.203,1.657,4.427,2.916
			c1.224,1.26,2.168,2.799,2.834,4.616C283.551,41.026,283.884,43.069,283.884,45.336z M278.648,45.336
			c0-3.274-0.811-5.794-2.43-7.559c-1.62-1.764-3.78-2.646-6.479-2.646c-1.512,0-2.691,0.055-3.536,0.162
			c-0.847,0.108-1.521,0.234-2.025,0.378v17.709c0.612,0.505,1.494,0.99,2.646,1.459c1.151,0.468,2.41,0.701,3.779,0.701
			c1.439,0,2.672-0.261,3.698-0.782c1.026-0.522,1.863-1.243,2.511-2.16c0.647-0.918,1.115-1.998,1.404-3.239
			C278.503,48.117,278.648,46.777,278.648,45.336z"/>
		<path fill="#00B4E6" d="M300.027,30.543c2.016,0,3.716,0.262,5.103,0.782c1.385,0.522,2.501,1.262,3.348,2.214
			c0.845,0.954,1.449,2.088,1.808,3.401c0.36,1.314,0.54,2.763,0.54,4.347v17.548c-0.432,0.073-1.036,0.171-1.809,0.297
			c-0.774,0.127-1.647,0.242-2.619,0.351c-0.973,0.108-2.025,0.206-3.159,0.298c-1.134,0.089-2.26,0.134-3.375,0.134
			c-1.584,0-3.042-0.161-4.373-0.486c-1.332-0.324-2.483-0.836-3.456-1.539c-0.972-0.701-1.728-1.627-2.267-2.779
			c-0.541-1.151-0.811-2.538-0.811-4.157c0-1.548,0.314-2.88,0.945-3.996c0.629-1.115,1.485-2.015,2.565-2.7
			c1.08-0.683,2.339-1.187,3.779-1.511c1.439-0.325,2.951-0.486,4.535-0.486c0.504,0,1.026,0.026,1.565,0.081
			c0.54,0.054,1.053,0.126,1.54,0.216c0.486,0.091,0.908,0.171,1.269,0.243c0.36,0.072,0.611,0.127,0.756,0.161v-1.403
			c0-0.827-0.09-1.646-0.27-2.457c-0.18-0.81-0.504-1.529-0.972-2.159c-0.469-0.629-1.106-1.135-1.917-1.513
			c-0.81-0.377-1.862-0.565-3.159-0.565c-1.656,0-3.104,0.117-4.346,0.352c-1.242,0.233-2.169,0.477-2.78,0.728l-0.594-4.157
			c0.648-0.287,1.728-0.567,3.24-0.838C296.625,30.678,298.264,30.543,300.027,30.543z M300.459,55.702
			c1.188,0,2.241-0.026,3.159-0.08s1.682-0.153,2.294-0.298v-8.368c-0.36-0.179-0.945-0.333-1.755-0.459s-1.792-0.188-2.942-0.188
			c-0.756,0-1.558,0.053-2.403,0.162c-0.846,0.107-1.62,0.333-2.321,0.674c-0.702,0.343-1.288,0.811-1.755,1.403
			c-0.468,0.596-0.701,1.378-0.701,2.35c0,1.8,0.575,3.05,1.728,3.753C296.914,55.352,298.479,55.702,300.459,55.702z"/>
		<path fill="#00B4E6" d="M331.343,59.968c-2.268,0-4.257-0.359-5.966-1.079s-3.15-1.729-4.319-3.024
			c-1.17-1.295-2.043-2.835-2.618-4.615c-0.576-1.782-0.864-3.753-0.864-5.913c0-2.159,0.315-4.139,0.945-5.939
			c0.629-1.799,1.52-3.355,2.672-4.67c1.151-1.313,2.565-2.339,4.239-3.078c1.672-0.736,3.535-1.105,5.588-1.105
			c1.259,0,2.519,0.107,3.778,0.323c1.259,0.217,2.465,0.559,3.618,1.026l-1.134,4.265c-0.755-0.358-1.628-0.647-2.618-0.863
			c-0.991-0.217-2.043-0.324-3.159-0.324c-2.807,0-4.958,0.882-6.451,2.646c-1.495,1.765-2.241,4.338-2.241,7.721
			c0,1.513,0.171,2.898,0.512,4.158c0.343,1.26,0.883,2.34,1.621,3.239c0.737,0.899,1.682,1.593,2.834,2.078
			c1.151,0.486,2.556,0.729,4.211,0.729c1.331,0,2.537-0.126,3.618-0.379c1.08-0.251,1.924-0.521,2.537-0.809l0.701,4.211
			c-0.288,0.181-0.701,0.351-1.241,0.513c-0.54,0.163-1.153,0.306-1.836,0.433c-0.685,0.125-1.414,0.233-2.187,0.323
			C332.81,59.923,332.063,59.968,331.343,59.968z"/>
		<path fill="#00B4E6" d="M342.681,45.336c0-2.483,0.36-4.651,1.079-6.507c0.72-1.853,1.674-3.391,2.862-4.615
			c1.188-1.224,2.556-2.142,4.103-2.753s3.132-0.918,4.752-0.918c3.778,0,6.675,1.179,8.692,3.536
			c2.016,2.357,3.023,5.947,3.023,10.771c0,0.216,0,0.495,0,0.837c0,0.343-0.018,0.657-0.055,0.944h-19.221
			c0.217,2.916,1.062,5.129,2.537,6.642c1.476,1.511,3.78,2.268,6.912,2.268c1.762,0,3.248-0.152,4.454-0.459
			c1.206-0.305,2.115-0.603,2.728-0.891l0.702,4.211c-0.613,0.323-1.684,0.667-3.212,1.025c-1.531,0.359-3.266,0.54-5.21,0.54
			c-2.449,0-4.562-0.37-6.345-1.105c-1.781-0.738-3.249-1.756-4.4-3.051c-1.153-1.297-2.007-2.835-2.565-4.617
			C342.96,49.413,342.681,47.461,342.681,45.336z M361.956,42.582c0.035-2.268-0.532-4.13-1.7-5.588
			c-1.171-1.457-2.781-2.187-4.833-2.187c-1.152,0-2.168,0.226-3.049,0.676c-0.882,0.449-1.63,1.035-2.241,1.754
			c-0.613,0.721-1.089,1.548-1.43,2.483c-0.343,0.938-0.567,1.891-0.675,2.861H361.956z"/>
	</g>
</g>
</svg>
